<svg id="Layer_1" data-name="Layer 1" xmlns="http://www.w3.org/2000/svg" viewBox="0 0 120 120"><defs><style>.cls-1{fill:#1eb7ea;}.cls-2{fill:#fff;}</style></defs><title>Untitled-1</title><path class="cls-1" d="M476.48,192.41a12,12,0,0,1-12,12h-96a12,12,0,0,1-12-12v-96a12,12,0,0,1,12-12h96a12,12,0,0,1,12,12v96Z" transform="translate(-356.48 -84.41)"/><path class="cls-2" d="M457.45,124.26q-.57,12.66-17.68,34.67-17.68,23-29.92,23-7.59,0-12.83-14-3.51-12.82-7-25.66-3.9-14-8.36-14c-.65,0-2.92,1.37-6.8,4.08l-4.08-5.25q6.42-5.64,12.65-11.28,8.56-7.39,12.85-7.79,10.13-1,12.46,13.84,2.53,16,3.51,19.87Q415.17,155,418.68,155q2.71,0,8.17-8.6t5.84-13.09q.78-7.42-5.84-7.43a16.34,16.34,0,0,0-6.42,1.42q6.4-20.92,24.43-20.35,13.36.39,12.59,17.34Z" transform="translate(-356.48 -84.41)"/></svg>